{
	"asset":{
		"generator":"Khronos glTF Blender I/O v4.3.47",
		"version":"2.0"
	},
	"scene":0,
	"scenes":[
		{
			"name":"Scene",
			"nodes":[
				0
			]
		}
	],
	"nodes":[
		{
			"mesh":0,
			"name":"tripo_node_910f1cf1-f0f8-45c4-a2f7-0cc37084025a"
		}
	],
	"materials":[
		{
			"name":"tripo_material_fad75018-f4db-4f39-a50b-8a1d2f20a7e9",
			"normalTexture":{
				"index":0
			},
			"pbrMetallicRoughness":{
				"baseColorTexture":{
					"index":1
				},
				"metallicRoughnessTexture":{
					"index":2
				}
			}
		}
	],
	"meshes":[
		{
			"name":"Mesh_0",
			"primitives":[
				{
					"attributes":{
						"POSITION":0,
						"NORMAL":1,
						"TEXCOORD_0":2
					},
					"indices":3,
					"material":0
				}
			]
		}
	],
	"textures":[
		{
			"sampler":0,
			"source":0
		},
		{
			"sampler":0,
			"source":1
		},
		{
			"sampler":0,
			"source":2
		}
	],
	"images":[
		{
			"mimeType":"image/jpeg",
			"name":"Image_2",
			"uri":"Image_2.jpg"
		},
		{
			"mimeType":"image/jpeg",
			"name":"Image_1",
			"uri":"Image_1.jpg"
		},
		{
			"mimeType":"image/png",
			"name":"Image_0",
			"uri":"Image_0.png"
		}
	],
	"accessors":[
		{
			"bufferView":0,
			"componentType":5126,
			"count":258009,
			"max":[
				0.5,
				0.4376220703125,
				0.383514404296875
			],
			"min":[
				-0.5,
				-0.4376220703125,
				-0.383514404296875
			],
			"type":"VEC3"
		},
		{
			"bufferView":1,
			"componentType":5126,
			"count":258009,
			"type":"VEC3"
		},
		{
			"bufferView":2,
			"componentType":5126,
			"count":258009,
			"type":"VEC2"
		},
		{
			"bufferView":3,
			"componentType":5125,
			"count":1499994,
			"type":"SCALAR"
		}
	],
	"bufferViews":[
		{
			"buffer":0,
			"byteLength":3096108,
			"byteOffset":0,
			"target":34962
		},
		{
			"buffer":0,
			"byteLength":3096108,
			"byteOffset":3096108,
			"target":34962
		},
		{
			"buffer":0,
			"byteLength":2064072,
			"byteOffset":6192216,
			"target":34962
		},
		{
			"buffer":0,
			"byteLength":5999976,
			"byteOffset":8256288,
			"target":34963
		}
	],
	"samplers":[
		{
			"magFilter":9729,
			"minFilter":9987
		}
	],
	"buffers":[
		{
			"byteLength":14256264,
			"uri":"scene.bin"
		}
	]
}
