{
  "accessors": [
    {
      "bufferView": 2,
      "componentType": 5126,
      "count": 65532,
      "max": [
        1.1245853900909424,
        1.8153128623962402,
        0.2771020233631134
      ],
      "min": [
        -0.8476065397262573,
        0.004443969577550888,
        -0.3442298471927643
      ],
      "type": "VEC3"
    },
    {
      "bufferView": 2,
      "byteOffset": 786384,
      "componentType": 5126,
      "count": 65532,
      "max": [
        0.9999997615814209,
        0.9999997019767761,
        0.9999999403953552
      ],
      "min": [
        -0.9999995231628418,
        -0.9999648928642273,
        -0.9063425660133362
      ],
      "type": "VEC3"
    },
    {
      "bufferView": 1,
      "componentType": 5126,
      "count": 65532,
      "max": [
        0.9994011521339417,
        0.9966986179351807
      ],
      "min": [
        0.004078197758644819,
        0.002179861068725586
      ],
      "type": "VEC2"
    },
    {
      "bufferView": 0,
      "componentType": 5125,
      "count": 353835,
      "type": "SCALAR"
    },
    {
      "bufferView": 2,
      "byteOffset": 1572768,
      "componentType": 5126,
      "count": 65532,
      "max": [
        1.1571582555770874,
        1.8330187797546387,
        0.33566054701805115
      ],
      "min": [
        -0.8476060628890991,
        0.005106013268232346,
        -0.34894829988479614
      ],
      "type": "VEC3"
    },
    {
      "bufferView": 2,
      "byteOffset": 2359152,
      "componentType": 5126,
      "count": 65532,
      "max": [
        0.9999958276748657,
        0.9999997019767761,
        1.0
      ],
      "min": [
        -0.9999980926513672,
        -0.9999693632125854,
        -0.9995953440666199
      ],
      "type": "VEC3"
    },
    {
      "bufferView": 1,
      "byteOffset": 524256,
      "componentType": 5126,
      "count": 65532,
      "max": [
        0.9995152950286865,
        0.9999352693557739
      ],
      "min": [
        6.47332999506034e-05,
        0.00044924020767211914
      ],
      "type": "VEC2"
    },
    {
      "bufferView": 0,
      "byteOffset": 1415340,
      "componentType": 5125,
      "count": 324930,
      "type": "SCALAR"
    },
    {
      "bufferView": 2,
      "byteOffset": 3145536,
      "componentType": 5126,
      "count": 65532,
      "max": [
        1.1523780822753906,
        1.8334708213806152,
        0.2902768552303314
      ],
      "min": [
        -0.7561498284339905,
        0.005106013268232346,
        -0.34918466210365295
      ],
      "type": "VEC3"
    },
    {
      "bufferView": 2,
      "byteOffset": 3931920,
      "componentType": 5126,
      "count": 65532,
      "max": [
        0.9999997615814209,
        0.9999989867210388,
        0.9999998807907104
      ],
      "min": [
        -0.9999910593032837,
        -0.9999838471412659,
        -0.9825043678283691
      ],
      "type": "VEC3"
    },
    {
      "bufferView": 1,
      "byteOffset": 1048512,
      "componentType": 5126,
      "count": 65532,
      "max": [
        0.9991944432258606,
        0.9994174242019653
      ],
      "min": [
        0.003560331417247653,
        0.0007713437080383301
      ],
      "type": "VEC2"
    },
    {
      "bufferView": 0,
      "byteOffset": 2715060,
      "componentType": 5125,
      "count": 346950,
      "type": "SCALAR"
    },
    {
      "bufferView": 2,
      "byteOffset": 4718304,
      "componentType": 5126,
      "count": 36812,
      "max": [
        1.0691919326782227,
        1.8325135707855225,
        0.2904154062271118
      ],
      "min": [
        -0.6862125992774963,
        0.007864372804760933,
        -0.3488701581954956
      ],
      "type": "VEC3"
    },
    {
      "bufferView": 2,
      "byteOffset": 5160048,
      "componentType": 5126,
      "count": 36812,
      "max": [
        0.9999987483024597,
        0.9999900460243225,
        0.9999999403953552
      ],
      "min": [
        -0.9999985694885254,
        -0.9999480247497559,
        -0.9577008485794067
      ],
      "type": "VEC3"
    },
    {
      "bufferView": 1,
      "byteOffset": 1572768,
      "componentType": 5126,
      "count": 36812,
      "max": [
        0.9996061325073242,
        0.9976048469543457
      ],
      "min": [
        0.0008415328920818865,
        0.0004999637603759766
      ],
      "type": "VEC2"
    },
    {
      "bufferView": 0,
      "byteOffset": 4102860,
      "componentType": 5125,
      "count": 188487,
      "type": "SCALAR"
    }
  ],
  "asset": {
    "extras": {
      "author": "archeologya (https://sketchfab.com/archeologya)",
      "license": "CC-BY-4.0 (http://creativecommons.org/licenses/by/4.0/)",
      "source": "https://sketchfab.com/3d-models/collegiata-di-san-candido-0e8e8a59aa8649fcb520b9992cc2cd4a",
      "title": "Collegiata di San Candido"
    },
    "generator": "Sketchfab-16.61.0",
    "version": "2.0"
  },
  "bufferViews": [
    {
      "buffer": 0,
      "byteLength": 4856808,
      "name": "floatBufferViews",
      "target": 34963
    },
    {
      "buffer": 0,
      "byteLength": 1867264,
      "byteOffset": 4856808,
      "byteStride": 8,
      "name": "floatBufferViews",
      "target": 34962
    },
    {
      "buffer": 0,
      "byteLength": 5601792,
      "byteOffset": 6724072,
      "byteStride": 12,
      "name": "floatBufferViews",
      "target": 34962
    }
  ],
  "buffers": [
    {
      "byteLength": 12325864,
      "uri": "scene.bin"
    }
  ],
  "extensionsUsed": [
    "KHR_materials_unlit"
  ],
  "images": [
    {
      "uri": "textures/material_0_baseColor.jpeg"
    }
  ],
  "materials": [
    {
      "extensions": {
        "KHR_materials_unlit": {}
      },
      "name": "material_0",
      "pbrMetallicRoughness": {
        "baseColorTexture": {
          "index": 0
        },
        "metallicFactor": 0.0
      }
    }
  ],
  "meshes": [
    {
      "name": "Object_0",
      "primitives": [
        {
          "attributes": {
            "NORMAL": 1,
            "POSITION": 0,
            "TEXCOORD_0": 2
          },
          "indices": 3,
          "material": 0,
          "mode": 4
        }
      ]
    },
    {
      "name": "Object_1",
      "primitives": [
        {
          "attributes": {
            "NORMAL": 5,
            "POSITION": 4,
            "TEXCOORD_0": 6
          },
          "indices": 7,
          "material": 0,
          "mode": 4
        }
      ]
    },
    {
      "name": "Object_2",
      "primitives": [
        {
          "attributes": {
            "NORMAL": 9,
            "POSITION": 8,
            "TEXCOORD_0": 10
          },
          "indices": 11,
          "material": 0,
          "mode": 4
        }
      ]
    },
    {
      "name": "Object_3",
      "primitives": [
        {
          "attributes": {
            "NORMAL": 13,
            "POSITION": 12,
            "TEXCOORD_0": 14
          },
          "indices": 15,
          "material": 0,
          "mode": 4
        }
      ]
    }
  ],
  "nodes": [
    {
      "children": [
        1
      ],
      "matrix": [
        1.0,
        0.0,
        0.0,
        0.0,
        0.0,
        2.220446049250313e-16,
        -1.0,
        0.0,
        0.0,
        1.0,
        2.220446049250313e-16,
        0.0,
        0.0,
        0.0,
        0.0,
        1.0
      ],
      "name": "Sketchfab_model"
    },
    {
      "children": [
        2
      ],
      "name": "root"
    },
    {
      "children": [
        3
      ],
      "matrix": [
        1.0,
        0.0,
        0.0,
        0.0,
        0.0,
        2.220446049250313e-16,
        1.0,
        0.0,
        0.0,
        -1.0,
        2.220446049250313e-16,
        0.0,
        0.0,
        0.0,
        0.0,
        1.0
      ],
      "name": "GLTF_SceneRootNode"
    },
    {
      "children": [
        4,
        5,
        6,
        7
      ],
      "name": "_0"
    },
    {
      "mesh": 0,
      "name": "Object_4"
    },
    {
      "mesh": 1,
      "name": "Object_5"
    },
    {
      "mesh": 2,
      "name": "Object_6"
    },
    {
      "mesh": 3,
      "name": "Object_7"
    }
  ],
  "samplers": [
    {
      "magFilter": 9729,
      "minFilter": 9729,
      "wrapS": 10497,
      "wrapT": 10497
    }
  ],
  "scene": 0,
  "scenes": [
    {
      "name": "Sketchfab_Scene",
      "nodes": [
        0
      ]
    }
  ],
  "textures": [
    {
      "sampler": 0,
      "source": 0
    }
  ]
}
