{
  "accessors": [
    {
      "bufferView": 2,
      "componentType": 5126,
      "count": 65532,
      "max": [
        1.193349838256836,
        1.4496557712554932,
        1.1143929958343506
      ],
      "min": [
        -1.1556800603866577,
        2.0056962966918945e-05,
        -1.30160391330719
      ],
      "type": "VEC3"
    },
    {
      "bufferView": 2,
      "byteOffset": 786384,
      "componentType": 5126,
      "count": 65532,
      "max": [
        0.9999532699584961,
        0.9999997615814209,
        0.9999960064888
      ],
      "min": [
        -0.9999917149543762,
        -0.9954502582550049,
        -0.9999794363975525
      ],
      "type": "VEC3"
    },
    {
      "bufferView": 1,
      "componentType": 5126,
      "count": 65532,
      "max": [
        0.9995831847190857,
        0.99993497133255
      ],
      "min": [
        0.0003250552690587938,
        0.0004044771194458008
      ],
      "type": "VEC2"
    },
    {
      "bufferView": 0,
      "componentType": 5125,
      "count": 334056,
      "type": "SCALAR"
    },
    {
      "bufferView": 2,
      "byteOffset": 1572768,
      "componentType": 5126,
      "count": 65532,
      "max": [
        1.1933457851409912,
        1.4495964050292969,
        1.0747933387756348
      ],
      "min": [
        -1.1193042993545532,
        0.0,
        -1.30160391330719
      ],
      "type": "VEC3"
    },
    {
      "bufferView": 2,
      "byteOffset": 2359152,
      "componentType": 5126,
      "count": 65532,
      "max": [
        0.9999493360519409,
        0.9999998807907104,
        0.9999719858169556
      ],
      "min": [
        -0.9992828369140625,
        -0.9992153644561768,
        -0.9993960857391357
      ],
      "type": "VEC3"
    },
    {
      "bufferView": 1,
      "byteOffset": 524256,
      "componentType": 5126,
      "count": 65532,
      "max": [
        0.998579204082489,
        0.99993497133255
      ],
      "min": [
        6.501105235656723e-05,
        0.000704646110534668
      ],
      "type": "VEC2"
    },
    {
      "bufferView": 0,
      "byteOffset": 1336224,
      "componentType": 5125,
      "count": 344313,
      "type": "SCALAR"
    },
    {
      "bufferView": 2,
      "byteOffset": 3145536,
      "componentType": 5126,
      "count": 40937,
      "max": [
        1.1412479877471924,
        1.4496078491210938,
        0.8348455429077148
      ],
      "min": [
        -0.8478158712387085,
        0.006251692771911621,
        -1.301551342010498
      ],
      "type": "VEC3"
    },
    {
      "bufferView": 2,
      "byteOffset": 3636780,
      "componentType": 5126,
      "count": 40937,
      "max": [
        0.9997803568840027,
        0.9999998211860657,
        0.9999881982803345
      ],
      "min": [
        -0.999995768070221,
        -0.9559414386749268,
        -0.9996532797813416
      ],
      "type": "VEC3"
    },
    {
      "bufferView": 1,
      "byteOffset": 1048512,
      "componentType": 5126,
      "count": 40937,
      "max": [
        0.9992904663085938,
        0.99993497133255
      ],
      "min": [
        0.0014873860636726022,
        0.000496983528137207
      ],
      "type": "VEC2"
    },
    {
      "bufferView": 0,
      "byteOffset": 2713476,
      "componentType": 5125,
      "count": 210978,
      "type": "SCALAR"
    }
  ],
  "asset": {
    "extras": {
      "author": "archeologya (https://sketchfab.com/archeologya)",
      "license": "CC-BY-4.0 (http://creativecommons.org/licenses/by/4.0/)",
      "source": "https://sketchfab.com/3d-models/leone-duomo-di-bolzano-bozen-1f135caa4dd14de9a13394a15c178cf4",
      "title": "Leone duomo di Bolzano / Bozen"
    },
    "generator": "Sketchfab-16.61.0",
    "version": "2.0"
  },
  "bufferViews": [
    {
      "buffer": 0,
      "byteLength": 3557388,
      "name": "floatBufferViews",
      "target": 34963
    },
    {
      "buffer": 0,
      "byteLength": 1376008,
      "byteOffset": 3557388,
      "byteStride": 8,
      "name": "floatBufferViews",
      "target": 34962
    },
    {
      "buffer": 0,
      "byteLength": 4128024,
      "byteOffset": 4933396,
      "byteStride": 12,
      "name": "floatBufferViews",
      "target": 34962
    }
  ],
  "buffers": [
    {
      "byteLength": 9061420,
      "uri": "scene.bin"
    }
  ],
  "extensionsUsed": [
    "KHR_materials_unlit"
  ],
  "images": [
    {
      "uri": "textures/material_0_baseColor.jpeg"
    }
  ],
  "materials": [
    {
      "extensions": {
        "KHR_materials_unlit": {}
      },
      "name": "material_0",
      "pbrMetallicRoughness": {
        "baseColorTexture": {
          "index": 0
        },
        "metallicFactor": 0.0
      }
    }
  ],
  "meshes": [
    {
      "name": "Object_0",
      "primitives": [
        {
          "attributes": {
            "NORMAL": 1,
            "POSITION": 0,
            "TEXCOORD_0": 2
          },
          "indices": 3,
          "material": 0,
          "mode": 4
        }
      ]
    },
    {
      "name": "Object_1",
      "primitives": [
        {
          "attributes": {
            "NORMAL": 5,
            "POSITION": 4,
            "TEXCOORD_0": 6
          },
          "indices": 7,
          "material": 0,
          "mode": 4
        }
      ]
    },
    {
      "name": "Object_2",
      "primitives": [
        {
          "attributes": {
            "NORMAL": 9,
            "POSITION": 8,
            "TEXCOORD_0": 10
          },
          "indices": 11,
          "material": 0,
          "mode": 4
        }
      ]
    }
  ],
  "nodes": [
    {
      "children": [
        1
      ],
      "matrix": [
        0.9997852444648743,
        0.020724058151245117,
        4.601665304636597e-18,
        0.0,
        0.0,
        2.220446049250313e-16,
        -1.0,
        0.0,
        -0.020724058151245117,
        0.9997852444648743,
        2.2199691961707885e-16,
        0.0,
        0.0,
        0.0,
        0.0,
        1.0
      ],
      "name": "Sketchfab_model"
    },
    {
      "children": [
        2
      ],
      "name": "root"
    },
    {
      "children": [
        3
      ],
      "matrix": [
        1.0,
        0.0,
        0.0,
        0.0,
        0.0,
        2.220446049250313e-16,
        1.0,
        0.0,
        0.0,
        -1.0,
        2.220446049250313e-16,
        0.0,
        0.0,
        0.0,
        0.0,
        1.0
      ],
      "name": "GLTF_SceneRootNode"
    },
    {
      "children": [
        4,
        5,
        6
      ],
      "name": "_0"
    },
    {
      "mesh": 0,
      "name": "Object_4"
    },
    {
      "mesh": 1,
      "name": "Object_5"
    },
    {
      "mesh": 2,
      "name": "Object_6"
    }
  ],
  "samplers": [
    {
      "magFilter": 9729,
      "minFilter": 9729,
      "wrapS": 10497,
      "wrapT": 10497
    }
  ],
  "scene": 0,
  "scenes": [
    {
      "name": "Sketchfab_Scene",
      "nodes": [
        0
      ]
    }
  ],
  "textures": [
    {
      "sampler": 0,
      "source": 0
    }
  ]
}
