{
  "accessors": [
    {
      "bufferView": 2,
      "componentType": 5126,
      "count": 65532,
      "max": [
        21.93351173400879,
        18.425907135009766,
        20.371662139892578
      ],
      "min": [
        -12.764418601989746,
        -5.770750522613525,
        -1.0846357345581055
      ],
      "type": "VEC3"
    },
    {
      "bufferView": 2,
      "byteOffset": 786384,
      "componentType": 5126,
      "count": 65532,
      "max": [
        0.9999855756759644,
        0.9999980330467224,
        0.999996542930603
      ],
      "min": [
        -0.9674022197723389,
        -0.9999852776527405,
        -1.0
      ],
      "type": "VEC3"
    },
    {
      "bufferView": 1,
      "componentType": 5126,
      "count": 65532,
      "max": [
        0.9996758699417114,
        0.5405839681625366
      ],
      "min": [
        0.019775390625,
        0.0002456499496474862
      ],
      "type": "VEC2"
    },
    {
      "bufferView": 0,
      "componentType": 5125,
      "count": 358176,
      "type": "SCALAR"
    },
    {
      "bufferView": 2,
      "byteOffset": 1572768,
      "componentType": 5126,
      "count": 65532,
      "max": [
        22.047805786132813,
        17.058521270751953,
        14.343961715698242
      ],
      "min": [
        -11.78884220123291,
        -18.142581939697266,
        -1.0846357345581055
      ],
      "type": "VEC3"
    },
    {
      "bufferView": 2,
      "byteOffset": 2359152,
      "componentType": 5126,
      "count": 65532,
      "max": [
        0.9995549321174622,
        0.9997975826263428,
        0.9999977350234985
      ],
      "min": [
        -0.9999622702598572,
        -0.9996931552886963,
        -0.9999998211860657
      ],
      "type": "VEC3"
    },
    {
      "bufferView": 1,
      "byteOffset": 524256,
      "componentType": 5126,
      "count": 65532,
      "max": [
        0.8768457770347595,
        0.537825882434845
      ],
      "min": [
        0.023378198966383934,
        0.00028665794525295496
      ],
      "type": "VEC2"
    },
    {
      "bufferView": 0,
      "byteOffset": 1432704,
      "componentType": 5125,
      "count": 341052,
      "type": "SCALAR"
    },
    {
      "bufferView": 2,
      "byteOffset": 3145536,
      "componentType": 5126,
      "count": 65532,
      "max": [
        18.23522186279297,
        18.990642547607422,
        20.36351203918457
      ],
      "min": [
        -18.049287796020508,
        -19.731904983520508,
        -1.0846357345581055
      ],
      "type": "VEC3"
    },
    {
      "bufferView": 2,
      "byteOffset": 3931920,
      "componentType": 5126,
      "count": 65532,
      "max": [
        0.9987642765045166,
        0.999993085861206,
        0.9999998807907104
      ],
      "min": [
        -0.9999658465385437,
        -0.9999950528144836,
        -1.0
      ],
      "type": "VEC3"
    },
    {
      "bufferView": 1,
      "byteOffset": 1048512,
      "componentType": 5126,
      "count": 65532,
      "max": [
        0.9723827838897705,
        0.527056097984314
      ],
      "min": [
        0.000244140625,
        0.0002566768089309335
      ],
      "type": "VEC2"
    },
    {
      "bufferView": 0,
      "byteOffset": 2796912,
      "componentType": 5125,
      "count": 326892,
      "type": "SCALAR"
    },
    {
      "bufferView": 2,
      "byteOffset": 4718304,
      "componentType": 5126,
      "count": 700,
      "max": [
        17.54232406616211,
        3.588343620300293,
        20.05702018737793
      ],
      "min": [
        1.283344030380249,
        -6.368247032165527,
        0.5594005584716797
      ],
      "type": "VEC3"
    },
    {
      "bufferView": 2,
      "byteOffset": 4726704,
      "componentType": 5126,
      "count": 700,
      "max": [
        0.9304319620132446,
        0.7807843089103699,
        0.9999891519546509
      ],
      "min": [
        -0.3233121931552887,
        -0.9553310871124268,
        -0.06992744654417038
      ],
      "type": "VEC3"
    },
    {
      "bufferView": 1,
      "byteOffset": 1572768,
      "componentType": 5126,
      "count": 700,
      "max": [
        0.9604069590568542,
        0.45739850401878357
      ],
      "min": [
        0.000244140625,
        0.0002812339225783944
      ],
      "type": "VEC2"
    },
    {
      "bufferView": 0,
      "byteOffset": 4104480,
      "componentType": 5125,
      "count": 1539,
      "type": "SCALAR"
    }
  ],
  "asset": {
    "extras": {
      "author": "Shiro Morturn (https://sketchfab.com/morturn)",
      "license": "CC-BY-4.0 (http://creativecommons.org/licenses/by/4.0/)",
      "source": "https://sketchfab.com/3d-models/westbury-on-severn-font-3a4648194400448d92fb54cfc0adc181",
      "title": "Westbury on Severn Font"
    },
    "generator": "Sketchfab-16.75.0",
    "version": "2.0"
  },
  "bufferViews": [
    {
      "buffer": 0,
      "byteLength": 4110636,
      "name": "floatBufferViews",
      "target": 34963
    },
    {
      "buffer": 0,
      "byteLength": 1578368,
      "byteOffset": 4110636,
      "byteStride": 8,
      "name": "floatBufferViews",
      "target": 34962
    },
    {
      "buffer": 0,
      "byteLength": 4735104,
      "byteOffset": 5689004,
      "byteStride": 12,
      "name": "floatBufferViews",
      "target": 34962
    }
  ],
  "buffers": [
    {
      "byteLength": 10424108,
      "uri": "scene.bin"
    }
  ],
  "images": [
    {
      "uri": "textures/tex_u1_v1_baseColor.jpeg"
    }
  ],
  "materials": [
    {
      "doubleSided": true,
      "name": "tex_u1_v1",
      "pbrMetallicRoughness": {
        "baseColorTexture": {
          "index": 0
        },
        "metallicFactor": 0.0
      }
    }
  ],
  "meshes": [
    {
      "name": "Object_0",
      "primitives": [
        {
          "attributes": {
            "NORMAL": 1,
            "POSITION": 0,
            "TEXCOORD_0": 2
          },
          "indices": 3,
          "material": 0,
          "mode": 4
        }
      ]
    },
    {
      "name": "Object_1",
      "primitives": [
        {
          "attributes": {
            "NORMAL": 5,
            "POSITION": 4,
            "TEXCOORD_0": 6
          },
          "indices": 7,
          "material": 0,
          "mode": 4
        }
      ]
    },
    {
      "name": "Object_2",
      "primitives": [
        {
          "attributes": {
            "NORMAL": 9,
            "POSITION": 8,
            "TEXCOORD_0": 10
          },
          "indices": 11,
          "material": 0,
          "mode": 4
        }
      ]
    },
    {
      "name": "Object_3",
      "primitives": [
        {
          "attributes": {
            "NORMAL": 13,
            "POSITION": 12,
            "TEXCOORD_0": 14
          },
          "indices": 15,
          "material": 0,
          "mode": 4
        }
      ]
    }
  ],
  "nodes": [
    {
      "children": [
        1
      ],
      "matrix": [
        1.0,
        0.0,
        0.0,
        0.0,
        0.0,
        2.220446049250313e-16,
        -1.0,
        0.0,
        0.0,
        1.0,
        2.220446049250313e-16,
        0.0,
        0.0,
        0.0,
        0.0,
        1.0
      ],
      "name": "Sketchfab_model"
    },
    {
      "children": [
        2,
        3,
        4,
        5
      ],
      "name": "model.obj.cleaner.materialmerger.gles"
    },
    {
      "mesh": 0,
      "name": "Object_2"
    },
    {
      "mesh": 1,
      "name": "Object_3"
    },
    {
      "mesh": 2,
      "name": "Object_4"
    },
    {
      "mesh": 3,
      "name": "Object_5"
    }
  ],
  "samplers": [
    {
      "magFilter": 9729,
      "minFilter": 9987,
      "wrapS": 10497,
      "wrapT": 10497
    }
  ],
  "scene": 0,
  "scenes": [
    {
      "name": "Sketchfab_Scene",
      "nodes": [
        0
      ]
    }
  ],
  "textures": [
    {
      "sampler": 0,
      "source": 0
    }
  ]
}
